<svg width="36" height="36" viewBox="0 0 36 36" fill="none" xmlns="http://www.w3.org/2000/svg">
<path d="M18 0C8.07429 0 0 8.07429 0 18C0 27.9257 8.07429 36 18 36C27.9257 36 36 27.9257 36 18C36 8.07429 27.9257 0 18 0ZM27.738 17.3751L24.2383 20.9623L25.0689 26.0486C25.1871 26.7763 24.8811 27.5091 24.2743 27.936C23.9451 28.1674 23.5543 28.2857 23.166 28.2857C22.8446 28.2857 22.5231 28.206 22.2326 28.044L18 25.7066L13.7674 28.0466C13.122 28.404 12.3249 28.3629 11.7231 27.936C11.1189 27.5091 10.8129 26.7763 10.9286 26.0486L11.7591 20.9623L8.262 17.3751C7.758 16.8583 7.58314 16.0997 7.81457 15.4157C8.04343 14.7291 8.63486 14.2329 9.35229 14.1223L14.112 13.3946L16.2566 8.82514C16.8891 7.47 19.1134 7.47 19.746 8.82514L21.8906 13.3946L26.6503 14.1223C27.3651 14.2303 27.9591 14.7291 28.188 15.4157C28.4169 16.0997 28.242 16.8583 27.738 17.3751Z" fill="#D23B60"/>
</svg>
